<?xml version="1.0" encoding="UTF-8"?>
<svg width="192" height="192" viewBox="0 0 192 192" fill="none" xmlns="http://www.w3.org/2000/svg">
  <rect width="192" height="192" fill="#F8F6F4"/>
  <path d="M112.18 146C114.101 143.853 115.362 141.199 115.815 138.354C116.267 135.509 115.89 132.594 114.73 129.958C113.57 127.321 111.676 125.075 109.273 123.486C106.87 121.897 104.06 121.034 101.18 121M116 136C116 132.022 117.58 128.206 120.393 125.393C123.206 122.58 127.022 121 131 121H136C138.652 121 141.196 119.946 143.071 118.071C144.946 116.196 146 113.652 146 111V101C146 95.6957 143.893 90.6086 140.142 86.8579C136.391 83.1071 131.304 81 126 81V56M126 101H126.05M126 66C120.696 66 115.609 68.1071 111.858 71.8579C108.107 75.6086 106 80.6957 106 86C96.7174 86 87.815 89.6875 81.2513 96.2513C74.6875 102.815 71 111.717 71 121C71 96 91 96 91 68.5C91 65.5453 90.418 62.6194 89.2873 59.8896C88.1566 57.1598 86.4992 54.6794 84.4099 52.5901C82.3206 50.5008 79.8402 48.8434 77.1104 47.7127C74.3806 46.582 71.4547 46 68.5 46C65.5453 46 62.6194 46.582 59.8896 47.7127C57.1598 48.8434 54.6794 50.5008 52.5901 52.5901C50.5008 54.6794 48.8434 57.1598 47.7127 59.8896C46.582 62.6194 46 65.5453 46 68.5C46 71.8152 47.317 74.9946 49.6612 77.3388C52.0054 79.683 55.1848 81 58.5 81C61.8152 81 64.9946 79.683 67.3388 77.3388C69.683 74.9946 71 71.8152 71 68.5C71 86 51 91 51 121C51 135 62 146 76 146H126" stroke="#6237FF" stroke-width="10" stroke-linecap="round" stroke-linejoin="round"/>
</svg> 