<?xml version="1.0" encoding="UTF-8"?>
<svg xmlns="http://www.w3.org/2000/svg" viewBox="0 0 256 262" width="16" height="16" aria-hidden="true" focusable="false">
  <path fill="#4285F4" d="M255.9 133.5c0-10.1-.9-20.3-2.8-30.1H130v57h71.6c-3.1 17-12.5 31.4-26.6 41l43 33.6c25.1-23.2 37.9-57.3 37.9-101.5z"/>
  <path fill="#34A853" d="M130 261.1c35.9 0 66-11.9 88-32.3l-43-33.6c-12 8.1-27.5 12.9-45 12.9-34.6 0-63.9-23.3-74.3-54.6H11.3v34.3c22.2 44.1 67.8 73.3 118.7 73.3z"/>
  <path fill="#FBBC05" d="M55.7 153.5c-5.7-17-5.7-35.5 0-52.5V66.7H11.3C-3.7 96.4-3.7 129.7 11.3 159.4l44.4-35.9z"/>
  <path fill="#EA4335" d="M130 50.6c19.5-.3 38.2 6.9 52.5 20.4l39.2-39.2C196.1 12 164.1.9 130 1 79.1 1 33.5 30.3 11.3 74.4l44.4 34.6C66.1 73.3 95.4 50.6 130 50.6z"/>
</svg>

